<?xml version="1.0" encoding="utf-8"?>
<!-- Generator: Adobe Illustrator 19.1.0, SVG Export Plug-In . SVG Version: 6.00 Build 0)  -->
<!DOCTYPE svg PUBLIC "-//W3C//DTD SVG 1.1//EN" "http://www.w3.org/Graphics/SVG/1.1/DTD/svg11.dtd">
<svg version="1.1" id="_x32_-Color_Gray__x2B__Orange"
	 xmlns="http://www.w3.org/2000/svg" xmlns:xlink="http://www.w3.org/1999/xlink" x="0px" y="0px" viewBox="0 0 500 130"
	 enable-background="new 0 0 500 130" xml:space="preserve">
<g>
	<g>
		<g>
			<path fill="#55555A" d="M1.9,115.6l7.8-9.3c5.4,4.5,11,7.3,17.9,7.3c5.4,0,8.7-2.1,8.7-5.7v-0.2c0-3.3-2.1-5.1-12.1-7.6
				C12.1,97,4.3,93.7,4.3,81.8v-0.2c0-10.9,8.7-18.1,21-18.1c8.7,0,16.2,2.7,22.3,7.6l-6.9,9.9c-5.3-3.7-10.5-5.9-15.6-5.9
				c-5.1,0-7.7,2.3-7.7,5.2v0.2c0,3.9,2.6,5.2,12.9,7.9c12.2,3.2,19,7.5,19,18v0.2c0,11.9-9.1,18.6-22,18.6
				C18.3,125.2,9.1,122,1.9,115.6z"/>
			<path fill="#55555A" d="M57.4,64.4h24.5c14.3,0,22.9,8.5,22.9,20.7v0.2c0,13.9-10.8,21.1-24.2,21.1h-10v18H57.4V64.4z M81.1,94.6
				c6.6,0,10.4-3.9,10.4-9.1v-0.2c0-5.9-4.1-9.1-10.7-9.1H70.6v18.3H81.1z"/>
			<path fill="#55555A" d="M123.5,63.9h12.2l25.7,60.4h-13.8l-5.5-13.4h-25.3l-5.5,13.4H97.8L123.5,63.9z M137.4,99.2l-8-19.4
				l-8,19.4H137.4z"/>
			<path fill="#55555A" d="M167.6,64.4H195c7.6,0,13.5,2.1,17.5,6.1c3.3,3.3,5.1,8,5.1,13.7v0.2c0,9.7-5.2,15.8-12.8,18.6l14.6,21.4
				H204l-12.8-19.2h-10.4v19.2h-13.2V64.4z M194.2,93.5c6.4,0,10.1-3.4,10.1-8.5v-0.2c0-5.7-3.9-8.6-10.4-8.6h-13.1v17.2H194.2z"/>
			<g>
				<path fill="#55555A" d="M287.7,64.4h21.7c13.2,0,22.3,6.8,22.3,18.3v0.2c0,12.6-10.9,19.1-23.4,19.1h-16.2v22.3h-4.5V64.4z
					 M308.6,97.9c11.1,0,18.7-5.8,18.7-14.7V83c0-9.5-7.4-14.5-18.2-14.5h-17v29.4H308.6z"/>
				<path fill="#55555A" d="M403.1,115.6l2.9-3.3c6.6,6.1,12.7,8.9,21.5,8.9c9,0,15.2-5.1,15.2-11.9v-0.2c0-6.3-3.3-10-17-12.8
					c-14.4-2.9-20.2-7.8-20.2-16.9v-0.2c0-8.9,8.1-15.8,19.3-15.8c8.7,0,14.5,2.4,20.6,7.3l-2.8,3.5c-5.7-4.9-11.3-6.8-17.9-6.8
					c-8.8,0-14.6,5.1-14.6,11.3V79c0,6.3,3.3,10.2,17.5,13.1c13.9,2.8,19.7,7.8,19.7,16.5v0.2c0,9.7-8.3,16.4-19.9,16.4
					C417.6,125.2,410.3,122,403.1,115.6z"/>
				<path fill="#55555A" d="M472.8,68.5h-20.9v-4.1h46.2v4.1h-20.9v55.8h-4.5V68.5z"/>
			</g>
			<g>
				<path fill="#55555A" d="M239.8,89.6l20.8-25.2h16.1l-24.3,28.5l26.1,31.5h-17l-21.6-26.8v26.8h-13.2V64.4h13.2V89.6z"/>
			</g>
		</g>
		<path fill="#FA6423" d="M389.4,50.7c-6.7,5-8,13.9-8.2,19.9c-10.6-12.2,19.5-48.1-14.7-70.3c21.2,27.4-30.1,54.3-30.1,94.7
			c0,15.8,9.9,29.8,31.6,34.6c21.3-4.5,31.8-18.8,31.8-34.6C399.8,71.5,385.1,63.6,389.4,50.7z M368.1,116.7c-11.6,0-21-9.4-21-21
			c0-11.6,9.4-21,21-21c11.6,0,21,9.4,21,21C389.1,107.3,379.7,116.7,368.1,116.7z"/>
	</g>
</g>
</svg>
